#!OML:ASF X:\für Bonn\!DataBase\2005_08_12_Daniel\c3d\Daniel.ASF
:FULLY-SPECIFIED
:DEGREES
1
root 19.1564 15.9457 17.5499 709.376 -134.313 -2.47809
lowerback 41.9272 0.295782 1.54971
upperback 10.3654 -1.99594 -2.96511
thorax -8.54306 -1.95074 -2.98064
lowerneck -3.04771 2.00879 -2.36047
upperneck 5.71995 2.8956 -2.6403
head 2.32764 1.28505 -0.350188
rclavicle -2.66371e-014 2.38542e-014
rhumerus -38.5155 -1.79445 -80.6526
rradius 76.0767
rwrist 12.5162
rhand -34.9241 9.35064
rfingers 7.12502
rthumb -8.07155 -20.4752
lclavicle -2.66371e-014 2.38542e-014
lhumerus 152.807 155.719 256.901
lradius 75.7938
lwrist -29.2979
lhand -29.1587 5.92732
lfingers 7.12502
lthumb -2.50502 35.8924
rfemur -15.5125 4.02435 24.5939
rtibia 59.9669
rfoot -31.4446 -0.29007
rtoes -6.63229
lfemur -28.1204 2.38713 -21.5391
ltibia 75.2591
lfoot -21.2425 -6.3792
ltoes -11.5017
2
root 19.0876 15.9496 17.4711 709.292 -134.21 -2.55732
lowerback 41.9049 0.447986 1.43169
upperback 10.3252 -1.85079 -3.01347
thorax -8.57355 -1.87817 -3.03237
lowerneck -3.0593 1.97874 -2.33629
upperneck 5.81401 2.85479 -2.60844
head 2.36064 1.26389 -0.344934
rclavicle 4.37326e-015 5.56597e-014
rhumerus -38.4965 -1.89288 -80.5515
rradius 76.1276
rwrist 12.4948
rhand -34.8572 9.326
rfingers 7.12502
rthumb -8.00696 -20.5023
lclavicle 4.37326e-015 5.56597e-014
lhumerus 152.463 155.46 256.525
lradius 75.7451
lwrist -29.1994
lhand -29.2548 5.8451
lfingers 7.12502
lthumb -2.59784 35.809
rfemur -14.8739 3.87802 24.5747
rtibia 59.8953
rfoot -31.6604 -0.229557
rtoes -6.53499
lfemur -28.5844 1.91468 -21.698
ltibia 73.8778
lfoot -21.2586 -6.13788
ltoes -10.5793
3
root 19.0169 15.9565 17.3919 709.235 -134.115 -2.6631
lowerback 41.8268 0.603436 1.25696
upperback 10.3096 -1.72397 -3.03334
thorax -8.55856 -1.81565 -3.01759
lowerneck -3.05479 1.95932 -2.39261
upperneck 5.85713 2.83176 -2.6134
head 2.3733 1.24957 -0.337545
rclavicle -6.67916e-014 6.67916e-014
rhumerus -38.4341 -1.90373 -80.4226
rradius 76.1813
rwrist 12.5058
rhand -34.7877 9.34087
rfingers 7.12502
rthumb -7.93987 -20.49
lclavicle -6.67916e-014 6.67916e-014
lhumerus 152.142 155.05 256.236
lradius 75.7347
lwrist -29.1781
lhand -29.2144 5.91517
lfingers 7.12502
lthumb -2.55881 35.8796
rfemur -14.2379 3.75701 24.5306
rtibia 59.8118
rfoot -31.8324 -0.159515
rtoes -6.45682
lfemur -28.9662 1.40017 -21.8652
ltibia 72.3844
lfoot -21.0974 -5.88435
ltoes -9.93746
4
root 18.946 15.9632 17.3128 709.152 -134.029 -2.7526
lowerback 41.7468 0.745373 1.13038
upperback 10.3035 -1.60128 -3.09642
thorax -8.53539 -1.75496 -3.07231
lowerneck -3.08483 1.94601 -2.3567
upperneck 5.95305 2.81488 -2.60863
head 2.4111 1.23955 -0.341994
rclavicle 1.98785e-015 1.07344e-014
rhumerus -38.3695 -2.02052 -80.3539
rradius 76.2225
rwrist 12.5891
rhand -34.7226 9.31146
rfingers 7.12502
rthumb -7.87701 -20.5218
lclavicle 1.98785e-015 1.07344e-014
lhumerus 151.812 154.722 255.828
lradius 75.6957
lwrist -29.1799
lhand -29.2779 5.76924
lfingers 7.12502
lthumb -2.6201 35.7329
rfemur -13.576 3.62929 24.5069
rtibia 59.6968
rfoot -31.9809 -0.147208
rtoes -6.5013
lfemur -29.2779 0.8757 -22.0089
ltibia 70.8453
lfoot -20.9826 -5.5472
ltoes -9.75098
5
root 18.8747 15.971 17.2327 709.082 -133.92 -2.85165
lowerback 41.6801 0.890739 1.01794
upperback 10.2851 -1.4662 -3.16271
thorax -8.52953 -1.68745 -3.14255
lowerneck -3.11515 1.89803 -2.30806
upperneck 6.0445 2.7502 -2.5875
head 2.44732 1.20686 -0.344888
rclavicle 1.02175e-013 -2.62396e-014
rhumerus -38.3232 -2.10949 -80.2742
rradius 76.2748
rwrist 12.5129
rhand -34.7269 9.30358
rfingers 7.12502
rthumb -7.88117 -20.5295
lclavicle 1.02175e-013 -2.62396e-014
lhumerus 151.516 154.475 255.451
lradius 75.6254
lwrist -29.0463
lhand -29.3546 5.67677
lfingers 7.12502
lthumb -2.69415 35.6395
rfemur -12.8962 3.49845 24.4658
rtibia 59.5515
rfoot -32.0656 -0.132993
rtoes -6.39565
lfemur -29.559 0.359153 -22.1526
ltibia 69.2362
lfoot -20.8343 -5.28065
ltoes -9.56961
6
root 18.8021 15.9796 17.1552 708.993 -133.824 -2.92608
lowerback 41.5974 1.01372 0.918406
upperback 10.2904 -1.35498 -3.20905
thorax -8.49285 -1.63305 -3.1883
lowerneck -3.18621 1.88056 -2.38644
upperneck 6.14539 2.73288 -2.54282
head 2.49204 1.19473 -0.316853
rclavicle 3.97569e-014 -9.54166e-015
rhumerus -38.2272 -2.16835 -80.1616
rradius 76.2908
rwrist 12.498
rhand -34.7464 9.41726
rfingers 7.12502
rthumb -7.9 -20.4151
lclavicle 3.97569e-014 -9.54166e-015
lhumerus 151.193 154.241 255.075
lradius 75.5735
lwrist -28.8545
lhand -29.5135 5.66014
lfingers 7.12502
lthumb -2.84763 35.6209
rfemur -12.2092 3.32915 24.4165
rtibia 59.3685
rfoot -32.1425 -0.0203398
rtoes -6.24763
lfemur -29.8291 -0.100803 -22.2831
ltibia 67.5929
lfoot -20.6864 -5.06795
ltoes -9.76735
7
root 18.7274 15.9931 17.0746 708.923 -133.746 -3.03387
lowerback 41.504 1.15736 0.81218
upperback 10.2983 -1.22446 -3.28026
thorax -8.44964 -1.56943 -3.26517
lowerneck -3.32402 1.83543 -2.43087
upperneck 6.2795 2.68015 -2.48546
head 2.5606 1.1653 -0.290844
rclavicle 4.37326e-014 3.10104e-014
rhumerus -38.1725 -2.25791 -80.0758
rradius 76.3397
rwrist 12.4678
rhand -34.7293 9.40152
rfingers 7.12502
rthumb -7.8835 -20.4315
lclavicle 4.37326e-014 3.10104e-014
lhumerus 150.863 154.04 254.654
lradius 75.5485
lwrist -28.6864
lhand -29.5205 5.60057
lfingers 7.12502
lthumb -2.85441 35.5612
rfemur -11.4867 3.15261 24.3419
rtibia 59.1478
rfoot -32.1745 0.0341149
rtoes -6.35801
lfemur -30.0215 -0.521935 -22.4039
ltibia 65.8889
lfoot -20.5237 -4.92802
ltoes -9.76398
8
root 18.6528 16.0041 16.9962 708.796 -133.657 -3.0808
lowerback 41.4418 1.27967 0.700801
upperback 10.2813 -1.11206 -3.29838
thorax -8.44275 -1.51401 -3.27416
lowerneck -3.35965 1.82638 -2.58301
upperneck 6.42011 2.67376 -2.38956
head 2.61052 1.1574 -0.233721
rclavicle 2.82274e-014 1.27222e-014
rhumerus -38.1012 -2.24883 -79.9449
rradius 76.3403
rwrist 12.5143
rhand -34.81 9.33553
rfingers 7.12502
rthumb -7.96143 -20.4945
lclavicle 2.82274e-014 1.27222e-014
lhumerus 150.465 153.75 254.269
lradius 75.5476
lwrist -28.5274
lhand -29.6101 5.52894
lfingers 7.12502
lthumb -2.94094 35.4884
rfemur -10.7425 2.95562 24.3108
rtibia 58.9091
rfoot -32.2143 0.0998917
rtoes -6.36631
lfemur -30.1972 -0.998782 -22.4444
ltibia 64.1853
lfoot -20.3724 -4.8529
ltoes -9.80397
9
root 18.5771 16.0158 16.917 708.75 -133.585 -3.15507
lowerback 41.2961 1.3935 0.636513
upperback 10.2824 -0.998597 -3.39928
thorax -8.39366 -1.45569 -3.39771
lowerneck -3.47543 1.78433 -2.58622
upperneck 6.56886 2.62143 -2.31876
head 2.68082 1.12958 -0.210546
rclavicle -8.90555e-014 6.83819e-014
rhumerus -37.9741 -2.40644 -79.9143
rradius 76.2863
rwrist 12.6098
rhand -34.8166 9.29879
rfingers 7.12502
rthumb -7.96778 -20.531
lclavicle -8.90555e-014 6.83819e-014
lhumerus 150.09 153.606 253.781
lradius 75.5572
lwrist -28.3016
lhand -29.5934 5.38926
lfingers 7.12502
lthumb -2.92484 35.349
rfemur -10.0716 2.73856 24.2269
rtibia 58.6597
rfoot -32.2036 0.250345
rtoes -6.29746
lfemur -30.3808 -1.49246 -22.4734
ltibia 62.4428
lfoot -20.0132 -4.8299
ltoes -9.63909
10
root 18.5008 16.028 16.8392 708.665 -133.473 -3.27373
lowerback 41.2329 1.50567 0.5345
upperback 10.2776 -0.902884 -3.46248
thorax -8.37532 -1.4081 -3.45272
lowerneck -3.50175 1.73693 -2.74588
upperneck 6.68011 2.56173 -2.19204
head 2.71912 1.097 -0.144062
rclavicle 3.22031e-014 4.77083e-015
rhumerus -37.8946 -2.55264 -79.8275
rradius 76.2008
rwrist 12.6383
rhand -34.8007 9.34558
rfingers 7.12502
rthumb -7.95241 -20.4848
lclavicle 3.22031e-014 4.77083e-015
lhumerus 149.724 153.349 253.365
lradius 75.5437
lwrist -28.2316
lhand -29.546 5.28941
lfingers 7.12502
lthumb -2.879 35.2497
rfemur -9.31356 2.48201 24.095
rtibia 58.3926
rfoot -32.1616 0.387417
rtoes -6.21224
lfemur -30.4717 -1.98965 -22.5462
ltibia 60.6857
lfoot -19.4188 -4.77817
ltoes -9.33968
11
root 18.4241 16.042 16.76 708.551 -133.419 -3.33002
lowerback 41.1373 1.64497 0.420036
upperback 10.2819 -0.776643 -3.50614
thorax -8.33413 -1.34715 -3.49291
lowerneck -3.52403 1.7128 -2.82799
upperneck 6.76408 2.5319 -2.12425
head 2.74959 1.08001 -0.108773
rclavicle -2.8625e-014 -8.74653e-015
rhumerus -37.7833 -2.6309 -79.7404
rradius 76.1219
rwrist 12.5432
rhand -34.7699 9.34898
rfingers 7.12502
rthumb -7.92264 -20.4826
lclavicle -2.8625e-014 -8.74653e-015
lhumerus 149.328 153.155 252.968
lradius 75.6205
lwrist -28.0608
lhand -29.5018 5.31302
lfingers 7.12502
lthumb -2.83637 35.2739
rfemur -8.559 2.27475 24.021
rtibia 58.1133
rfoot -32.1182 0.530046
rtoes -6.14083
lfemur -30.5383 -2.4934 -22.5246
ltibia 58.9075
lfoot -18.8251 -4.6916
ltoes -8.81895
12
root 18.3469 16.0527 16.6811 708.396 -133.343 -3.35178
lowerback 41.0235 1.77479 0.342042
upperback 10.2962 -0.64576 -3.54504
thorax -8.27569 -1.28395 -3.54878
lowerneck -3.46444 1.67502 -2.88861
upperneck 6.82895 2.47814 -2.05816
head 2.7588 1.05239 -0.0794293
rclavicle 9.54166e-015 8.26944e-014
rhumerus -37.7168 -2.72566 -79.6664
rradius 76.0905
rwrist 12.5474
rhand -34.7212 9.2627
rfingers 7.12502
rthumb -7.87565 -20.5706
lclavicle 9.54166e-015 8.26944e-014
lhumerus 148.92 152.948 252.563
lradius 75.688
lwrist -28.0046
lhand -29.3748 5.20635
lfingers 7.12502
lthumb -2.71364 35.1688
rfemur -7.79244 2.02921 23.9668
rtibia 57.8257
rfoot -32.0895 0.656645
rtoes -6.3783
lfemur -30.5901 -2.92471 -22.4803
ltibia 57.1402
lfoot -18.2326 -4.64189
ltoes -8.67271
13
root 18.268 16.0627 16.6031 708.302 -133.261 -3.4602
lowerback 40.9135 1.90219 0.230874
upperback 10.3267 -0.53955 -3.61389
thorax -8.20266 -1.23347 -3.60894
lowerneck -3.48658 1.64625 -2.96372
upperneck 6.92617 2.4389 -1.94017
head 2.79333 1.03256 -0.0294423
rclavicle 7.95139e-016 5.64548e-014
rhumerus -37.5799 -2.82007 -79.5746
rradius 76.021
rwrist 12.4479
rhand -34.5753 9.17311
rfingers 7.12502
rthumb -7.73484 -20.6654
lclavicle 7.95139e-016 5.64548e-014
lhumerus 148.564 152.755 252.187
lradius 75.7697
lwrist -27.8397
lhand -29.2251 5.1953
lfingers 7.12502
lthumb -2.56912 35.1596
rfemur -7.01901 1.77599 23.8202
rtibia 57.5482
rfoot -32.0646 0.842521
rtoes -6.24202
lfemur -30.598 -3.37847 -22.486
ltibia 55.3665
lfoot -17.7015 -4.57468
ltoes -8.51659
